<?xml version="1.0" encoding="UTF-8" standalone="no"?>
<!DOCTYPE svg PUBLIC "-//W3C//DTD SVG 1.1//EN"
 "http://www.w3.org/Graphics/SVG/1.1/DTD/svg11.dtd">
<!-- Generated by graphviz version 12.2.1 (20241206.2353)
 -->
<!-- Title: classes_WeatherAPI_Modules Pages: 1 -->
<svg width="3548pt" height="135pt"
 viewBox="0.00 0.00 3547.62 134.50" xmlns="http://www.w3.org/2000/svg" xmlns:xlink="http://www.w3.org/1999/xlink">
<g id="graph0" class="graph" transform="scale(1 1) rotate(0) translate(4 130.5)">
<title>classes_WeatherAPI_Modules</title>
<polygon fill="white" stroke="none" points="-4,4 -4,-130.5 3543.62,-130.5 3543.62,4 -4,4"/>
<!-- api.models.domain.City -->
<g id="node1" class="node">
<title>api.models.domain.City</title>
<polygon fill="none" stroke="black" points="0,-0.5 0,-36.5 148,-36.5 148,-0.5 0,-0.5"/>
<text text-anchor="middle" x="74" y="-13.45" font-family="Times,serif" font-size="14.00">api.models.domain.City</text>
</g>
<!-- api.models.domain.Condition -->
<g id="node2" class="node">
<title>api.models.domain.Condition</title>
<polygon fill="none" stroke="black" points="291.62,-90 291.62,-126 470.38,-126 470.38,-90 291.62,-90"/>
<text text-anchor="middle" x="381" y="-102.95" font-family="Times,serif" font-size="14.00">api.models.domain.Condition</text>
</g>
<!-- api.models.domain.ConditionType -->
<g id="node3" class="node">
<title>api.models.domain.ConditionType</title>
<polygon fill="none" stroke="black" points="165.75,-0.5 165.75,-36.5 372.25,-36.5 372.25,-0.5 165.75,-0.5"/>
<text text-anchor="middle" x="269" y="-13.45" font-family="Times,serif" font-size="14.00">api.models.domain.ConditionType</text>
</g>
<!-- api.models.domain.ConditionType&#45;&gt;api.models.domain.Condition -->
<g id="edge6" class="edge">
<title>api.models.domain.ConditionType&#45;&gt;api.models.domain.Condition</title>
<path fill="none" stroke="black" d="M291.4,-37C307.72,-49.75 330.1,-67.24 348.41,-81.54"/>
<polygon fill="black" stroke="black" points="348.48,-81.59 355.67,-82.13 357.93,-88.98 350.74,-88.44 348.48,-81.59"/>
<text text-anchor="middle" x="346.66" y="-58.2" font-family="Times,serif" font-size="14.00" fill="green">type</text>
</g>
<!-- api.models.domain.IntensityLevel -->
<g id="node4" class="node">
<title>api.models.domain.IntensityLevel</title>
<polygon fill="none" stroke="black" points="390.62,-0.5 390.62,-36.5 593.38,-36.5 593.38,-0.5 390.62,-0.5"/>
<text text-anchor="middle" x="492" y="-13.45" font-family="Times,serif" font-size="14.00">api.models.domain.IntensityLevel</text>
</g>
<!-- api.models.domain.IntensityLevel&#45;&gt;api.models.domain.Condition -->
<g id="edge7" class="edge">
<title>api.models.domain.IntensityLevel&#45;&gt;api.models.domain.Condition</title>
<path fill="none" stroke="black" d="M469.8,-37C453.62,-49.75 431.44,-67.24 413.3,-81.54"/>
<polygon fill="black" stroke="black" points="413.29,-81.55 411.05,-88.4 403.87,-88.98 406.1,-82.12 413.29,-81.55"/>
<text text-anchor="middle" x="469.69" y="-58.2" font-family="Times,serif" font-size="14.00" fill="green">intensity</text>
</g>
<!-- api.models.domain.Location -->
<g id="node5" class="node">
<title>api.models.domain.Location</title>
<polygon fill="none" stroke="black" points="611.62,-0.5 611.62,-36.5 784.38,-36.5 784.38,-0.5 611.62,-0.5"/>
<text text-anchor="middle" x="698" y="-13.45" font-family="Times,serif" font-size="14.00">api.models.domain.Location</text>
</g>
<!-- api.models.domain.Report -->
<g id="node6" class="node">
<title>api.models.domain.Report</title>
<polygon fill="none" stroke="black" points="831.25,-90 831.25,-126 992.75,-126 992.75,-90 831.25,-90"/>
<text text-anchor="middle" x="912" y="-102.95" font-family="Times,serif" font-size="14.00">api.models.domain.Report</text>
</g>
<!-- api.models.domain.ReportCondition -->
<g id="node7" class="node">
<title>api.models.domain.ReportCondition</title>
<polygon fill="none" stroke="black" points="1039.25,-0.5 1039.25,-36.5 1254.75,-36.5 1254.75,-0.5 1039.25,-0.5"/>
<text text-anchor="middle" x="1147" y="-13.45" font-family="Times,serif" font-size="14.00">api.models.domain.ReportCondition</text>
</g>
<!-- api.models.domain.TemperatureUnit -->
<g id="node8" class="node">
<title>api.models.domain.TemperatureUnit</title>
<polygon fill="none" stroke="black" points="802.75,-0.5 802.75,-36.5 1021.25,-36.5 1021.25,-0.5 802.75,-0.5"/>
<text text-anchor="middle" x="912" y="-13.45" font-family="Times,serif" font-size="14.00">api.models.domain.TemperatureUnit</text>
</g>
<!-- api.models.domain.TemperatureUnit&#45;&gt;api.models.domain.Report -->
<g id="edge8" class="edge">
<title>api.models.domain.TemperatureUnit&#45;&gt;api.models.domain.Report</title>
<path fill="none" stroke="black" d="M912,-36.79C912,-48.17 912,-63.39 912,-76.74"/>
<polygon fill="black" stroke="black" points="912,-76.85 916,-82.85 912,-88.85 908,-82.85 912,-76.85"/>
<text text-anchor="middle" x="958.5" y="-58.2" font-family="Times,serif" font-size="14.00" fill="green">temperature_unit</text>
</g>
<!-- api.repositories.memory_repository.InMemoryCityRepository -->
<g id="node9" class="node">
<title>api.repositories.memory_repository.InMemoryCityRepository</title>
<polygon fill="none" stroke="black" points="1273.12,-0.5 1273.12,-36.5 1628.88,-36.5 1628.88,-0.5 1273.12,-0.5"/>
<text text-anchor="middle" x="1451" y="-13.45" font-family="Times,serif" font-size="14.00">api.repositories.memory_repository.InMemoryCityRepository</text>
</g>
<!-- api.repositories.memory_repository.InMemoryRepository -->
<g id="node14" class="node">
<title>api.repositories.memory_repository.InMemoryRepository</title>
<polygon fill="none" stroke="black" points="2075.75,-90 2075.75,-126 2408.25,-126 2408.25,-90 2075.75,-90"/>
<text text-anchor="middle" x="2242" y="-102.95" font-family="Times,serif" font-size="14.00">api.repositories.memory_repository.InMemoryRepository</text>
</g>
<!-- api.repositories.memory_repository.InMemoryCityRepository&#45;&gt;api.repositories.memory_repository.InMemoryRepository -->
<g id="edge1" class="edge">
<title>api.repositories.memory_repository.InMemoryCityRepository&#45;&gt;api.repositories.memory_repository.InMemoryRepository</title>
<path fill="none" stroke="black" d="M1609.17,-37C1743.49,-51.86 1935.77,-73.12 2073.07,-88.31"/>
<polygon fill="none" stroke="black" points="2072.28,-91.75 2082.6,-89.37 2073.05,-84.79 2072.28,-91.75"/>
</g>
<!-- api.repositories.memory_repository.InMemoryConditionRepository -->
<g id="node10" class="node">
<title>api.repositories.memory_repository.InMemoryConditionRepository</title>
<polygon fill="none" stroke="black" points="1646.75,-0.5 1646.75,-36.5 2033.25,-36.5 2033.25,-0.5 1646.75,-0.5"/>
<text text-anchor="middle" x="1840" y="-13.45" font-family="Times,serif" font-size="14.00">api.repositories.memory_repository.InMemoryConditionRepository</text>
</g>
<!-- api.repositories.memory_repository.InMemoryConditionRepository&#45;&gt;api.repositories.memory_repository.InMemoryRepository -->
<g id="edge2" class="edge">
<title>api.repositories.memory_repository.InMemoryConditionRepository&#45;&gt;api.repositories.memory_repository.InMemoryRepository</title>
<path fill="none" stroke="black" d="M1920.38,-37C1986.94,-51.48 2081.49,-72.06 2150.85,-87.16"/>
<polygon fill="none" stroke="black" points="2149.76,-90.5 2160.28,-89.21 2151.25,-83.66 2149.76,-90.5"/>
</g>
<!-- api.repositories.memory_repository.InMemoryLocationRepository -->
<g id="node11" class="node">
<title>api.repositories.memory_repository.InMemoryLocationRepository</title>
<polygon fill="none" stroke="black" points="2051.75,-0.5 2051.75,-36.5 2432.25,-36.5 2432.25,-0.5 2051.75,-0.5"/>
<text text-anchor="middle" x="2242" y="-13.45" font-family="Times,serif" font-size="14.00">api.repositories.memory_repository.InMemoryLocationRepository</text>
</g>
<!-- api.repositories.memory_repository.InMemoryLocationRepository&#45;&gt;api.repositories.memory_repository.InMemoryRepository -->
<g id="edge3" class="edge">
<title>api.repositories.memory_repository.InMemoryLocationRepository&#45;&gt;api.repositories.memory_repository.InMemoryRepository</title>
<path fill="none" stroke="black" d="M2242,-36.79C2242,-48.65 2242,-64.68 2242,-78.42"/>
<polygon fill="none" stroke="black" points="2238.5,-78.24 2242,-88.24 2245.5,-78.24 2238.5,-78.24"/>
</g>
<!-- api.repositories.memory_repository.InMemoryReportConditionRepository -->
<g id="node12" class="node">
<title>api.repositories.memory_repository.InMemoryReportConditionRepository</title>
<polygon fill="none" stroke="black" points="2450.38,-0.5 2450.38,-36.5 2873.62,-36.5 2873.62,-0.5 2450.38,-0.5"/>
<text text-anchor="middle" x="2662" y="-13.45" font-family="Times,serif" font-size="14.00">api.repositories.memory_repository.InMemoryReportConditionRepository</text>
</g>
<!-- api.repositories.memory_repository.InMemoryReportConditionRepository&#45;&gt;api.repositories.memory_repository.InMemoryRepository -->
<g id="edge4" class="edge">
<title>api.repositories.memory_repository.InMemoryReportConditionRepository&#45;&gt;api.repositories.memory_repository.InMemoryRepository</title>
<path fill="none" stroke="black" d="M2578.02,-37C2508.34,-51.51 2409.29,-72.15 2336.79,-87.25"/>
<polygon fill="none" stroke="black" points="2336.4,-83.76 2327.32,-89.22 2337.82,-90.61 2336.4,-83.76"/>
</g>
<!-- api.repositories.memory_repository.InMemoryReportRepository -->
<g id="node13" class="node">
<title>api.repositories.memory_repository.InMemoryReportRepository</title>
<polygon fill="none" stroke="black" points="2891.38,-0.5 2891.38,-36.5 3260.62,-36.5 3260.62,-0.5 2891.38,-0.5"/>
<text text-anchor="middle" x="3076" y="-13.45" font-family="Times,serif" font-size="14.00">api.repositories.memory_repository.InMemoryReportRepository</text>
</g>
<!-- api.repositories.memory_repository.InMemoryReportRepository&#45;&gt;api.repositories.memory_repository.InMemoryRepository -->
<g id="edge5" class="edge">
<title>api.repositories.memory_repository.InMemoryReportRepository&#45;&gt;api.repositories.memory_repository.InMemoryRepository</title>
<path fill="none" stroke="black" d="M2909.23,-37C2767.47,-51.87 2564.47,-73.17 2419.67,-88.36"/>
<polygon fill="none" stroke="black" points="2419.56,-84.85 2409.98,-89.38 2420.29,-91.81 2419.56,-84.85"/>
</g>
<!-- api.services.weather_service.WeatherService -->
<g id="node15" class="node">
<title>api.services.weather_service.WeatherService</title>
<polygon fill="none" stroke="black" points="3278.38,-0.5 3278.38,-36.5 3539.62,-36.5 3539.62,-0.5 3278.38,-0.5"/>
<text text-anchor="middle" x="3409" y="-13.45" font-family="Times,serif" font-size="14.00">api.services.weather_service.WeatherService</text>
</g>
</g>
</svg>
