<?xml version="1.0" encoding="UTF-8" standalone="no"?>
<!DOCTYPE svg PUBLIC "-//W3C//DTD SVG 1.1//EN"
 "http://www.w3.org/Graphics/SVG/1.1/DTD/svg11.dtd">
<!-- Generated by graphviz version 12.2.1 (20241206.2353)
 -->
<!-- Title: classes_WeatherAPI Pages: 1 -->
<svg width="3562pt" height="391pt"
 viewBox="0.00 0.00 3562.25 391.00" xmlns="http://www.w3.org/2000/svg" xmlns:xlink="http://www.w3.org/1999/xlink">
<g id="graph0" class="graph" transform="scale(1 1) rotate(0) translate(4 387)">
<title>classes_WeatherAPI</title>
<polygon fill="white" stroke="none" points="-4,4 -4,-387 3558.25,-387 3558.25,4 -4,4"/>
<!-- api.models.domain.City -->
<g id="node1" class="node">
<title>api.models.domain.City</title>
<polygon fill="none" stroke="black" points="0,-17 0,-140 145,-140 145,-17 0,-17"/>
<text text-anchor="start" x="60.88" y="-122.7" font-family="Times,serif" font-size="14.00">City</text>
<polyline fill="none" stroke="black" points="0,-115.5 145,-115.5"/>
<text text-anchor="start" x="19.62" y="-98.2" font-family="Times,serif" font-size="14.00">country : str</text>
<text text-anchor="start" x="19.62" y="-81.7" font-family="Times,serif" font-size="14.00">id : UUID</text>
<text text-anchor="start" x="19.62" y="-65.2" font-family="Times,serif" font-size="14.00">location_id : UUID</text>
<text text-anchor="start" x="19.62" y="-48.7" font-family="Times,serif" font-size="14.00">name : str</text>
<polyline fill="none" stroke="black" points="0,-41.5 145,-41.5"/>
<text text-anchor="start" x="8" y="-24.2" font-family="Times,serif" font-size="14.00">to_dict(): Dict[str, Any]</text>
</g>
<!-- api.models.domain.Condition -->
<g id="node2" class="node">
<title>api.models.domain.Condition</title>
<polygon fill="none" stroke="black" points="196,-234.75 196,-357.75 341,-357.75 341,-234.75 196,-234.75"/>
<text text-anchor="start" x="241.5" y="-340.45" font-family="Times,serif" font-size="14.00">Condition</text>
<polyline fill="none" stroke="black" points="196,-333.25 341,-333.25"/>
<text text-anchor="start" x="240.75" y="-315.95" font-family="Times,serif" font-size="14.00">id : UUID</text>
<text text-anchor="start" x="240.75" y="-299.45" font-family="Times,serif" font-size="14.00">intensity</text>
<text text-anchor="start" x="240.75" y="-282.95" font-family="Times,serif" font-size="14.00">name : str</text>
<text text-anchor="start" x="240.75" y="-266.45" font-family="Times,serif" font-size="14.00">type</text>
<polyline fill="none" stroke="black" points="196,-259.25 341,-259.25"/>
<text text-anchor="start" x="204" y="-241.95" font-family="Times,serif" font-size="14.00">to_dict(): Dict[str, Any]</text>
</g>
<!-- api.models.domain.ConditionType -->
<g id="node3" class="node">
<title>api.models.domain.ConditionType</title>
<polygon fill="none" stroke="black" points="162.62,-41.75 162.62,-115.25 260.38,-115.25 260.38,-41.75 162.62,-41.75"/>
<text text-anchor="start" x="170.62" y="-97.95" font-family="Times,serif" font-size="14.00">ConditionType</text>
<polyline fill="none" stroke="black" points="162.62,-90.75 260.38,-90.75"/>
<text text-anchor="start" x="196.5" y="-73.45" font-family="Times,serif" font-size="14.00">name</text>
<polyline fill="none" stroke="black" points="162.62,-66.25 260.38,-66.25"/>
<text text-anchor="start" x="209.62" y="-48.95" font-family="Times,serif" font-size="14.00"> </text>
</g>
<!-- api.models.domain.ConditionType&#45;&gt;api.models.domain.Condition -->
<g id="edge6" class="edge">
<title>api.models.domain.ConditionType&#45;&gt;api.models.domain.Condition</title>
<path fill="none" stroke="black" d="M221.04,-115.61C228.69,-144.58 239.69,-186.2 249.17,-222.08"/>
<polygon fill="black" stroke="black" points="249.15,-222.03 254.55,-226.8 252.22,-233.63 246.82,-228.85 249.15,-222.03"/>
<text text-anchor="middle" x="251.62" y="-178.2" font-family="Times,serif" font-size="14.00" fill="green">type</text>
</g>
<!-- api.repositories.memory_repository.InMemoryCityRepository -->
<g id="node4" class="node">
<title>api.repositories.memory_repository.InMemoryCityRepository</title>
<polygon fill="none" stroke="black" points="390.88,-45.75 390.88,-111.25 688.12,-111.25 688.12,-45.75 390.88,-45.75"/>
<text text-anchor="start" x="468.62" y="-93.95" font-family="Times,serif" font-size="14.00">InMemoryCityRepository</text>
<polyline fill="none" stroke="black" points="390.88,-86.75 688.12,-86.75"/>
<polyline fill="none" stroke="black" points="390.88,-86.75 688.12,-86.75"/>
<text text-anchor="start" x="398.88" y="-69.45" font-family="Times,serif" font-size="14.00">find_by_location_id(location_id: UUID): List[City]</text>
<text text-anchor="start" x="398.88" y="-52.95" font-family="Times,serif" font-size="14.00">find_by_name(name: str): Optional[City]</text>
</g>
<!-- api.repositories.memory_repository.InMemoryRepository -->
<g id="node9" class="node">
<title>api.repositories.memory_repository.InMemoryRepository</title>
<polygon fill="none" stroke="black" points="1010.38,-230.5 1010.38,-362 1250.62,-362 1250.62,-230.5 1010.38,-230.5"/>
<text text-anchor="start" x="1071.25" y="-344.7" font-family="Times,serif" font-size="14.00">InMemoryRepository</text>
<polyline fill="none" stroke="black" points="1010.38,-337.5 1250.62,-337.5"/>
<polyline fill="none" stroke="black" points="1010.38,-337.5 1250.62,-337.5"/>
<text text-anchor="start" x="1018.38" y="-320.2" font-family="Times,serif" font-size="14.00">add(entity: T): T</text>
<text text-anchor="start" x="1018.38" y="-303.7" font-family="Times,serif" font-size="14.00">clear()</text>
<text text-anchor="start" x="1018.38" y="-287.2" font-family="Times,serif" font-size="14.00">delete(entity_id: UUID): bool</text>
<text text-anchor="start" x="1018.38" y="-270.7" font-family="Times,serif" font-size="14.00">get_all(): List[T]</text>
<text text-anchor="start" x="1018.38" y="-254.2" font-family="Times,serif" font-size="14.00">get_by_id(entity_id: UUID): Optional[T]</text>
<text text-anchor="start" x="1018.38" y="-237.7" font-family="Times,serif" font-size="14.00">update(entity: T): Optional[T]</text>
</g>
<!-- api.repositories.memory_repository.InMemoryCityRepository&#45;&gt;api.repositories.memory_repository.InMemoryRepository -->
<g id="edge1" class="edge">
<title>api.repositories.memory_repository.InMemoryCityRepository&#45;&gt;api.repositories.memory_repository.InMemoryRepository</title>
<path fill="none" stroke="black" d="M599.7,-111.62C628.79,-126.47 664.48,-143.71 697.5,-157 796.84,-196.97 912.53,-233.41 999.32,-258.83"/>
<polygon fill="none" stroke="black" points="998.26,-262.17 1008.84,-261.61 1000.22,-255.45 998.26,-262.17"/>
</g>
<!-- api.repositories.memory_repository.InMemoryConditionRepository -->
<g id="node5" class="node">
<title>api.repositories.memory_repository.InMemoryConditionRepository</title>
<polygon fill="none" stroke="black" points="706.25,-54 706.25,-103 978.75,-103 978.75,-54 706.25,-54"/>
<text text-anchor="start" x="756.25" y="-85.7" font-family="Times,serif" font-size="14.00">InMemoryConditionRepository</text>
<polyline fill="none" stroke="black" points="706.25,-78.5 978.75,-78.5"/>
<polyline fill="none" stroke="black" points="706.25,-78.5 978.75,-78.5"/>
<text text-anchor="start" x="714.25" y="-61.2" font-family="Times,serif" font-size="14.00">find_by_name(name: str): Optional[Condition]</text>
</g>
<!-- api.repositories.memory_repository.InMemoryConditionRepository&#45;&gt;api.repositories.memory_repository.InMemoryRepository -->
<g id="edge2" class="edge">
<title>api.repositories.memory_repository.InMemoryConditionRepository&#45;&gt;api.repositories.memory_repository.InMemoryRepository</title>
<path fill="none" stroke="black" d="M874.42,-103.41C912.78,-132.15 978.91,-181.69 1034.35,-223.22"/>
<polygon fill="none" stroke="black" points="1032.2,-225.98 1042.3,-229.17 1036.39,-220.38 1032.2,-225.98"/>
</g>
<!-- api.repositories.memory_repository.InMemoryLocationRepository -->
<g id="node6" class="node">
<title>api.repositories.memory_repository.InMemoryLocationRepository</title>
<polygon fill="none" stroke="black" points="997.25,-54 997.25,-103 1263.75,-103 1263.75,-54 997.25,-54"/>
<text text-anchor="start" x="1047.25" y="-85.7" font-family="Times,serif" font-size="14.00">InMemoryLocationRepository</text>
<polyline fill="none" stroke="black" points="997.25,-78.5 1263.75,-78.5"/>
<polyline fill="none" stroke="black" points="997.25,-78.5 1263.75,-78.5"/>
<text text-anchor="start" x="1005.25" y="-61.2" font-family="Times,serif" font-size="14.00">find_by_name(name: str): Optional[Location]</text>
</g>
<!-- api.repositories.memory_repository.InMemoryLocationRepository&#45;&gt;api.repositories.memory_repository.InMemoryRepository -->
<g id="edge3" class="edge">
<title>api.repositories.memory_repository.InMemoryLocationRepository&#45;&gt;api.repositories.memory_repository.InMemoryRepository</title>
<path fill="none" stroke="black" d="M1130.5,-103.41C1130.5,-131.19 1130.5,-178.41 1130.5,-219.05"/>
<polygon fill="none" stroke="black" points="1127,-218.8 1130.5,-228.8 1134,-218.8 1127,-218.8"/>
</g>
<!-- api.repositories.memory_repository.InMemoryReportConditionRepository -->
<g id="node7" class="node">
<title>api.repositories.memory_repository.InMemoryReportConditionRepository</title>
<polygon fill="none" stroke="black" points="1281.62,-45.75 1281.62,-111.25 1661.38,-111.25 1661.38,-45.75 1281.62,-45.75"/>
<text text-anchor="start" x="1366.88" y="-93.95" font-family="Times,serif" font-size="14.00">InMemoryReportConditionRepository</text>
<polyline fill="none" stroke="black" points="1281.62,-86.75 1661.38,-86.75"/>
<polyline fill="none" stroke="black" points="1281.62,-86.75 1661.38,-86.75"/>
<text text-anchor="start" x="1289.62" y="-69.45" font-family="Times,serif" font-size="14.00">find_by_condition_id(condition_id: UUID): List[ReportCondition]</text>
<text text-anchor="start" x="1289.62" y="-52.95" font-family="Times,serif" font-size="14.00">find_by_report_id(report_id: UUID): List[ReportCondition]</text>
</g>
<!-- api.repositories.memory_repository.InMemoryReportConditionRepository&#45;&gt;api.repositories.memory_repository.InMemoryRepository -->
<g id="edge4" class="edge">
<title>api.repositories.memory_repository.InMemoryReportConditionRepository&#45;&gt;api.repositories.memory_repository.InMemoryRepository</title>
<path fill="none" stroke="black" d="M1420.82,-111.57C1374.06,-141.15 1302.99,-186.11 1242.88,-224.15"/>
<polygon fill="none" stroke="black" points="1241.19,-221.08 1234.61,-229.38 1244.93,-226.99 1241.19,-221.08"/>
</g>
<!-- api.repositories.memory_repository.InMemoryReportRepository -->
<g id="node8" class="node">
<title>api.repositories.memory_repository.InMemoryReportRepository</title>
<polygon fill="none" stroke="black" points="1679,-54 1679,-103 2088,-103 2088,-54 1679,-54"/>
<text text-anchor="start" x="1805.88" y="-85.7" font-family="Times,serif" font-size="14.00">InMemoryReportRepository</text>
<polyline fill="none" stroke="black" points="1679,-78.5 2088,-78.5"/>
<polyline fill="none" stroke="black" points="1679,-78.5 2088,-78.5"/>
<text text-anchor="start" x="1687" y="-61.2" font-family="Times,serif" font-size="14.00">find_by_location_id(location_id: UUID, latest_only: bool): List[Report]</text>
</g>
<!-- api.repositories.memory_repository.InMemoryReportRepository&#45;&gt;api.repositories.memory_repository.InMemoryRepository -->
<g id="edge5" class="edge">
<title>api.repositories.memory_repository.InMemoryReportRepository&#45;&gt;api.repositories.memory_repository.InMemoryRepository</title>
<path fill="none" stroke="black" d="M1822.52,-103.5C1780.22,-119.69 1722.38,-140.96 1670.5,-157 1532.62,-199.62 1372.13,-239.5 1262.17,-265.37"/>
<polygon fill="none" stroke="black" points="1261.43,-261.95 1252.49,-267.64 1263.03,-268.76 1261.43,-261.95"/>
</g>
<!-- api.models.domain.IntensityLevel -->
<g id="node10" class="node">
<title>api.models.domain.IntensityLevel</title>
<polygon fill="none" stroke="black" points="278.5,-41.75 278.5,-115.25 372.5,-115.25 372.5,-41.75 278.5,-41.75"/>
<text text-anchor="start" x="286.5" y="-97.95" font-family="Times,serif" font-size="14.00">IntensityLevel</text>
<polyline fill="none" stroke="black" points="278.5,-90.75 372.5,-90.75"/>
<text text-anchor="start" x="310.5" y="-73.45" font-family="Times,serif" font-size="14.00">name</text>
<polyline fill="none" stroke="black" points="278.5,-66.25 372.5,-66.25"/>
<text text-anchor="start" x="323.62" y="-48.95" font-family="Times,serif" font-size="14.00"> </text>
</g>
<!-- api.models.domain.IntensityLevel&#45;&gt;api.models.domain.Condition -->
<g id="edge7" class="edge">
<title>api.models.domain.IntensityLevel&#45;&gt;api.models.domain.Condition</title>
<path fill="none" stroke="black" d="M315.96,-115.61C308.31,-144.58 297.31,-186.2 287.83,-222.08"/>
<polygon fill="black" stroke="black" points="287.85,-222.03 290.18,-228.85 284.78,-233.63 282.45,-226.8 287.85,-222.03"/>
<text text-anchor="middle" x="321.96" y="-178.2" font-family="Times,serif" font-size="14.00" fill="green">intensity</text>
</g>
<!-- api.models.domain.Location -->
<g id="node11" class="node">
<title>api.models.domain.Location</title>
<polygon fill="none" stroke="black" points="2106,-0.5 2106,-156.5 2251,-156.5 2251,-0.5 2106,-0.5"/>
<text text-anchor="start" x="2154.5" y="-139.2" font-family="Times,serif" font-size="14.00">Location</text>
<polyline fill="none" stroke="black" points="2106,-132 2251,-132"/>
<text text-anchor="start" x="2135" y="-114.7" font-family="Times,serif" font-size="14.00">elevation : float</text>
<text text-anchor="start" x="2135" y="-98.2" font-family="Times,serif" font-size="14.00">id : UUID</text>
<text text-anchor="start" x="2135" y="-81.7" font-family="Times,serif" font-size="14.00">latitude : float</text>
<text text-anchor="start" x="2135" y="-65.2" font-family="Times,serif" font-size="14.00">longitude : float</text>
<text text-anchor="start" x="2135" y="-48.7" font-family="Times,serif" font-size="14.00">name : str</text>
<text text-anchor="start" x="2135" y="-32.2" font-family="Times,serif" font-size="14.00">timezone : str</text>
<polyline fill="none" stroke="black" points="2106,-25 2251,-25"/>
<text text-anchor="start" x="2114" y="-7.7" font-family="Times,serif" font-size="14.00">to_dict(): Dict[str, Any]</text>
</g>
<!-- api.models.domain.Report -->
<g id="node12" class="node">
<title>api.models.domain.Report</title>
<polygon fill="none" stroke="black" points="2242.38,-210 2242.38,-382.5 2404.62,-382.5 2404.62,-210 2242.38,-210"/>
<text text-anchor="start" x="2305.12" y="-365.2" font-family="Times,serif" font-size="14.00">Report</text>
<polyline fill="none" stroke="black" points="2242.38,-358 2404.62,-358"/>
<text text-anchor="start" x="2250.38" y="-340.7" font-family="Times,serif" font-size="14.00">humidity : float</text>
<text text-anchor="start" x="2250.38" y="-324.2" font-family="Times,serif" font-size="14.00">id : UUID</text>
<text text-anchor="start" x="2250.38" y="-307.7" font-family="Times,serif" font-size="14.00">location_id : UUID</text>
<text text-anchor="start" x="2250.38" y="-291.2" font-family="Times,serif" font-size="14.00">source : str</text>
<text text-anchor="start" x="2250.38" y="-274.7" font-family="Times,serif" font-size="14.00">temperature_current : float</text>
<text text-anchor="start" x="2250.38" y="-258.2" font-family="Times,serif" font-size="14.00">temperature_unit</text>
<text text-anchor="start" x="2250.38" y="-241.7" font-family="Times,serif" font-size="14.00">timestamp : datetime</text>
<polyline fill="none" stroke="black" points="2242.38,-234.5 2404.62,-234.5"/>
<text text-anchor="start" x="2259" y="-217.2" font-family="Times,serif" font-size="14.00">to_dict(): Dict[str, Any]</text>
</g>
<!-- api.models.domain.ReportCondition -->
<g id="node13" class="node">
<title>api.models.domain.ReportCondition</title>
<polygon fill="none" stroke="black" points="2396,-25.25 2396,-131.75 2541,-131.75 2541,-25.25 2396,-25.25"/>
<text text-anchor="start" x="2423.12" y="-114.45" font-family="Times,serif" font-size="14.00">ReportCondition</text>
<polyline fill="none" stroke="black" points="2396,-107.25 2541,-107.25"/>
<text text-anchor="start" x="2411.88" y="-89.95" font-family="Times,serif" font-size="14.00">condition_id : UUID</text>
<text text-anchor="start" x="2411.88" y="-73.45" font-family="Times,serif" font-size="14.00">id : UUID</text>
<text text-anchor="start" x="2411.88" y="-56.95" font-family="Times,serif" font-size="14.00">report_id : UUID</text>
<polyline fill="none" stroke="black" points="2396,-49.75 2541,-49.75"/>
<text text-anchor="start" x="2404" y="-32.45" font-family="Times,serif" font-size="14.00">to_dict(): Dict[str, Any]</text>
</g>
<!-- api.models.domain.TemperatureUnit -->
<g id="node14" class="node">
<title>api.models.domain.TemperatureUnit</title>
<polygon fill="none" stroke="black" points="2268.62,-41.75 2268.62,-115.25 2378.38,-115.25 2378.38,-41.75 2268.62,-41.75"/>
<text text-anchor="start" x="2276.62" y="-97.95" font-family="Times,serif" font-size="14.00">TemperatureUnit</text>
<polyline fill="none" stroke="black" points="2268.62,-90.75 2378.38,-90.75"/>
<text text-anchor="start" x="2308.5" y="-73.45" font-family="Times,serif" font-size="14.00">name</text>
<polyline fill="none" stroke="black" points="2268.62,-66.25 2378.38,-66.25"/>
<text text-anchor="start" x="2321.62" y="-48.95" font-family="Times,serif" font-size="14.00"> </text>
</g>
<!-- api.models.domain.TemperatureUnit&#45;&gt;api.models.domain.Report -->
<g id="edge8" class="edge">
<title>api.models.domain.TemperatureUnit&#45;&gt;api.models.domain.Report</title>
<path fill="none" stroke="black" d="M2323.5,-115.61C2323.5,-137.97 2323.5,-167.87 2323.5,-196.84"/>
<polygon fill="black" stroke="black" points="2323.5,-196.71 2327.5,-202.71 2323.5,-208.71 2319.5,-202.71 2323.5,-196.71"/>
<text text-anchor="middle" x="2370" y="-178.2" font-family="Times,serif" font-size="14.00" fill="green">temperature_unit</text>
</g>
<!-- api.services.weather_service.WeatherService -->
<g id="node15" class="node">
<title>api.services.weather_service.WeatherService</title>
<polygon fill="none" stroke="black" points="2558.75,-21 2558.75,-136 3554.25,-136 3554.25,-21 2558.75,-21"/>
<text text-anchor="start" x="3013.38" y="-118.7" font-family="Times,serif" font-size="14.00">WeatherService</text>
<polyline fill="none" stroke="black" points="2558.75,-111.5 3554.25,-111.5"/>
<polyline fill="none" stroke="black" points="2558.75,-111.5 3554.25,-111.5"/>
<text text-anchor="start" x="2566.75" y="-94.2" font-family="Times,serif" font-size="14.00">add_weather_report(city_name: str, temperature: float, timestamp_str: Optional[str], condition_name: Optional[str], humidity: float): Tuple[Optional[Dict[str, Any]], Optional[str]]</text>
<text text-anchor="start" x="2566.75" y="-77.7" font-family="Times,serif" font-size="14.00">delete_city_weather(city_name: str): Tuple[bool, Optional[str]]</text>
<text text-anchor="start" x="2566.75" y="-61.2" font-family="Times,serif" font-size="14.00">get_all_city_summaries(): Tuple[Optional[Dict[str, Any]], Optional[str]]</text>
<text text-anchor="start" x="2566.75" y="-44.7" font-family="Times,serif" font-size="14.00">get_city_weather(city_name: str): Tuple[Optional[Dict[str, Any]], Optional[str]]</text>
<text text-anchor="start" x="2566.75" y="-28.2" font-family="Times,serif" font-size="14.00">update_city_weather(city_name: str, updates: Dict[str, Any]): Tuple[Optional[Dict[str, Any]], Optional[str]]</text>
</g>
</g>
</svg>
