<?xml version="1.0" encoding="UTF-8" standalone="no"?>
<!DOCTYPE svg PUBLIC "-//W3C//DTD SVG 1.1//EN"
 "http://www.w3.org/Graphics/SVG/1.1/DTD/svg11.dtd">
<!-- Generated by graphviz version 12.2.1 (20241206.2353)
 -->
<!-- Title: classes_Repositories Pages: 1 -->
<svg width="1705pt" height="243pt"
 viewBox="0.00 0.00 1705.12 243.00" xmlns="http://www.w3.org/2000/svg" xmlns:xlink="http://www.w3.org/1999/xlink">
<g id="graph0" class="graph" transform="scale(1 1) rotate(0) translate(4 239)">
<title>classes_Repositories</title>
<polygon fill="white" stroke="none" points="-4,4 -4,-239 1701.12,-239 1701.12,4 -4,4"/>
<!-- api.repositories.memory_repository.InMemoryCityRepository -->
<g id="node1" class="node">
<title>api.repositories.memory_repository.InMemoryCityRepository</title>
<polygon fill="none" stroke="black" points="0,-0.5 0,-66 297.25,-66 297.25,-0.5 0,-0.5"/>
<text text-anchor="start" x="77.75" y="-48.7" font-family="Times,serif" font-size="14.00">InMemoryCityRepository</text>
<polyline fill="none" stroke="black" points="0,-41.5 297.25,-41.5"/>
<polyline fill="none" stroke="black" points="0,-41.5 297.25,-41.5"/>
<text text-anchor="start" x="8" y="-24.2" font-family="Times,serif" font-size="14.00">find_by_location_id(location_id: UUID): List[City]</text>
<text text-anchor="start" x="8" y="-7.7" font-family="Times,serif" font-size="14.00">find_by_name(name: str): Optional[City]</text>
</g>
<!-- api.repositories.memory_repository.InMemoryRepository -->
<g id="node6" class="node">
<title>api.repositories.memory_repository.InMemoryRepository</title>
<polygon fill="none" stroke="black" points="619.5,-103 619.5,-234.5 859.75,-234.5 859.75,-103 619.5,-103"/>
<text text-anchor="start" x="680.38" y="-217.2" font-family="Times,serif" font-size="14.00">InMemoryRepository</text>
<polyline fill="none" stroke="black" points="619.5,-210 859.75,-210"/>
<polyline fill="none" stroke="black" points="619.5,-210 859.75,-210"/>
<text text-anchor="start" x="627.5" y="-192.7" font-family="Times,serif" font-size="14.00">add(entity: T): T</text>
<text text-anchor="start" x="627.5" y="-176.2" font-family="Times,serif" font-size="14.00">clear()</text>
<text text-anchor="start" x="627.5" y="-159.7" font-family="Times,serif" font-size="14.00">delete(entity_id: UUID): bool</text>
<text text-anchor="start" x="627.5" y="-143.2" font-family="Times,serif" font-size="14.00">get_all(): List[T]</text>
<text text-anchor="start" x="627.5" y="-126.7" font-family="Times,serif" font-size="14.00">get_by_id(entity_id: UUID): Optional[T]</text>
<text text-anchor="start" x="627.5" y="-110.2" font-family="Times,serif" font-size="14.00">update(entity: T): Optional[T]</text>
</g>
<!-- api.repositories.memory_repository.InMemoryCityRepository&#45;&gt;api.repositories.memory_repository.InMemoryRepository -->
<g id="edge1" class="edge">
<title>api.repositories.memory_repository.InMemoryCityRepository&#45;&gt;api.repositories.memory_repository.InMemoryRepository</title>
<path fill="none" stroke="black" d="M291.31,-66.48C387.75,-88.27 514.15,-116.82 608.14,-138.05"/>
<polygon fill="none" stroke="black" points="607.14,-141.41 617.67,-140.2 608.69,-134.58 607.14,-141.41"/>
</g>
<!-- api.repositories.memory_repository.InMemoryConditionRepository -->
<g id="node2" class="node">
<title>api.repositories.memory_repository.InMemoryConditionRepository</title>
<polygon fill="none" stroke="black" points="315.38,-8.75 315.38,-57.75 587.88,-57.75 587.88,-8.75 315.38,-8.75"/>
<text text-anchor="start" x="365.38" y="-40.45" font-family="Times,serif" font-size="14.00">InMemoryConditionRepository</text>
<polyline fill="none" stroke="black" points="315.38,-33.25 587.88,-33.25"/>
<polyline fill="none" stroke="black" points="315.38,-33.25 587.88,-33.25"/>
<text text-anchor="start" x="323.38" y="-15.95" font-family="Times,serif" font-size="14.00">find_by_name(name: str): Optional[Condition]</text>
</g>
<!-- api.repositories.memory_repository.InMemoryConditionRepository&#45;&gt;api.repositories.memory_repository.InMemoryRepository -->
<g id="edge2" class="edge">
<title>api.repositories.memory_repository.InMemoryConditionRepository&#45;&gt;api.repositories.memory_repository.InMemoryRepository</title>
<path fill="none" stroke="black" d="M503.11,-58.12C532.82,-71.89 571.63,-89.88 609.2,-107.29"/>
<polygon fill="none" stroke="black" points="607.32,-110.28 617.86,-111.31 610.26,-103.93 607.32,-110.28"/>
</g>
<!-- api.repositories.memory_repository.InMemoryLocationRepository -->
<g id="node3" class="node">
<title>api.repositories.memory_repository.InMemoryLocationRepository</title>
<polygon fill="none" stroke="black" points="606.38,-8.75 606.38,-57.75 872.88,-57.75 872.88,-8.75 606.38,-8.75"/>
<text text-anchor="start" x="656.38" y="-40.45" font-family="Times,serif" font-size="14.00">InMemoryLocationRepository</text>
<polyline fill="none" stroke="black" points="606.38,-33.25 872.88,-33.25"/>
<polyline fill="none" stroke="black" points="606.38,-33.25 872.88,-33.25"/>
<text text-anchor="start" x="614.38" y="-15.95" font-family="Times,serif" font-size="14.00">find_by_name(name: str): Optional[Location]</text>
</g>
<!-- api.repositories.memory_repository.InMemoryLocationRepository&#45;&gt;api.repositories.memory_repository.InMemoryRepository -->
<g id="edge3" class="edge">
<title>api.repositories.memory_repository.InMemoryLocationRepository&#45;&gt;api.repositories.memory_repository.InMemoryRepository</title>
<path fill="none" stroke="black" d="M739.62,-58.12C739.62,-67.71 739.62,-79.34 739.62,-91.41"/>
<polygon fill="none" stroke="black" points="736.13,-91.05 739.63,-101.05 743.13,-91.05 736.13,-91.05"/>
</g>
<!-- api.repositories.memory_repository.InMemoryReportConditionRepository -->
<g id="node4" class="node">
<title>api.repositories.memory_repository.InMemoryReportConditionRepository</title>
<polygon fill="none" stroke="black" points="890.75,-0.5 890.75,-66 1270.5,-66 1270.5,-0.5 890.75,-0.5"/>
<text text-anchor="start" x="976" y="-48.7" font-family="Times,serif" font-size="14.00">InMemoryReportConditionRepository</text>
<polyline fill="none" stroke="black" points="890.75,-41.5 1270.5,-41.5"/>
<polyline fill="none" stroke="black" points="890.75,-41.5 1270.5,-41.5"/>
<text text-anchor="start" x="898.75" y="-24.2" font-family="Times,serif" font-size="14.00">find_by_condition_id(condition_id: UUID): List[ReportCondition]</text>
<text text-anchor="start" x="898.75" y="-7.7" font-family="Times,serif" font-size="14.00">find_by_report_id(report_id: UUID): List[ReportCondition]</text>
</g>
<!-- api.repositories.memory_repository.InMemoryReportConditionRepository&#45;&gt;api.repositories.memory_repository.InMemoryRepository -->
<g id="edge4" class="edge">
<title>api.repositories.memory_repository.InMemoryReportConditionRepository&#45;&gt;api.repositories.memory_repository.InMemoryRepository</title>
<path fill="none" stroke="black" d="M998.51,-66.4C960.19,-81.4 913.63,-99.63 870.62,-116.47"/>
<polygon fill="none" stroke="black" points="869.51,-113.14 861.47,-120.05 872.06,-119.66 869.51,-113.14"/>
</g>
<!-- api.repositories.memory_repository.InMemoryReportRepository -->
<g id="node5" class="node">
<title>api.repositories.memory_repository.InMemoryReportRepository</title>
<polygon fill="none" stroke="black" points="1288.12,-8.75 1288.12,-57.75 1697.12,-57.75 1697.12,-8.75 1288.12,-8.75"/>
<text text-anchor="start" x="1415" y="-40.45" font-family="Times,serif" font-size="14.00">InMemoryReportRepository</text>
<polyline fill="none" stroke="black" points="1288.12,-33.25 1697.12,-33.25"/>
<polyline fill="none" stroke="black" points="1288.12,-33.25 1697.12,-33.25"/>
<text text-anchor="start" x="1296.12" y="-15.95" font-family="Times,serif" font-size="14.00">find_by_location_id(location_id: UUID, latest_only: bool): List[Report]</text>
</g>
<!-- api.repositories.memory_repository.InMemoryReportRepository&#45;&gt;api.repositories.memory_repository.InMemoryRepository -->
<g id="edge5" class="edge">
<title>api.repositories.memory_repository.InMemoryReportRepository&#45;&gt;api.repositories.memory_repository.InMemoryRepository</title>
<path fill="none" stroke="black" d="M1357.57,-58.19C1219.97,-82.59 1007.96,-120.18 871.52,-144.37"/>
<polygon fill="none" stroke="black" points="870.92,-140.92 861.69,-146.11 872.14,-147.81 870.92,-140.92"/>
</g>
</g>
</svg>
