<?xml version="1.0" encoding="UTF-8" standalone="no"?>
<!DOCTYPE svg PUBLIC "-//W3C//DTD SVG 1.1//EN"
 "http://www.w3.org/Graphics/SVG/1.1/DTD/svg11.dtd">
<!-- Generated by graphviz version 12.2.1 (20241206.2353)
 -->
<!-- Title: classes_Models Pages: 1 -->
<svg width="834pt" height="391pt"
 viewBox="0.00 0.00 834.00 391.00" xmlns="http://www.w3.org/2000/svg" xmlns:xlink="http://www.w3.org/1999/xlink">
<g id="graph0" class="graph" transform="scale(1 1) rotate(0) translate(4 387)">
<title>classes_Models</title>
<polygon fill="white" stroke="none" points="-4,4 -4,-387 830,-387 830,4 -4,4"/>
<!-- api.models.domain.City -->
<g id="node1" class="node">
<title>api.models.domain.City</title>
<polygon fill="none" stroke="black" points="0,-17 0,-140 145,-140 145,-17 0,-17"/>
<text text-anchor="start" x="60.88" y="-122.7" font-family="Times,serif" font-size="14.00">City</text>
<polyline fill="none" stroke="black" points="0,-115.5 145,-115.5"/>
<text text-anchor="start" x="19.62" y="-98.2" font-family="Times,serif" font-size="14.00">country : str</text>
<text text-anchor="start" x="19.62" y="-81.7" font-family="Times,serif" font-size="14.00">id : UUID</text>
<text text-anchor="start" x="19.62" y="-65.2" font-family="Times,serif" font-size="14.00">location_id : UUID</text>
<text text-anchor="start" x="19.62" y="-48.7" font-family="Times,serif" font-size="14.00">name : str</text>
<polyline fill="none" stroke="black" points="0,-41.5 145,-41.5"/>
<text text-anchor="start" x="8" y="-24.2" font-family="Times,serif" font-size="14.00">to_dict(): Dict[str, Any]</text>
</g>
<!-- api.models.domain.Condition -->
<g id="node2" class="node">
<title>api.models.domain.Condition</title>
<polygon fill="none" stroke="black" points="196,-234.75 196,-357.75 341,-357.75 341,-234.75 196,-234.75"/>
<text text-anchor="start" x="241.5" y="-340.45" font-family="Times,serif" font-size="14.00">Condition</text>
<polyline fill="none" stroke="black" points="196,-333.25 341,-333.25"/>
<text text-anchor="start" x="240.75" y="-315.95" font-family="Times,serif" font-size="14.00">id : UUID</text>
<text text-anchor="start" x="240.75" y="-299.45" font-family="Times,serif" font-size="14.00">intensity</text>
<text text-anchor="start" x="240.75" y="-282.95" font-family="Times,serif" font-size="14.00">name : str</text>
<text text-anchor="start" x="240.75" y="-266.45" font-family="Times,serif" font-size="14.00">type</text>
<polyline fill="none" stroke="black" points="196,-259.25 341,-259.25"/>
<text text-anchor="start" x="204" y="-241.95" font-family="Times,serif" font-size="14.00">to_dict(): Dict[str, Any]</text>
</g>
<!-- api.models.domain.ConditionType -->
<g id="node3" class="node">
<title>api.models.domain.ConditionType</title>
<polygon fill="none" stroke="black" points="162.62,-41.75 162.62,-115.25 260.38,-115.25 260.38,-41.75 162.62,-41.75"/>
<text text-anchor="start" x="170.62" y="-97.95" font-family="Times,serif" font-size="14.00">ConditionType</text>
<polyline fill="none" stroke="black" points="162.62,-90.75 260.38,-90.75"/>
<text text-anchor="start" x="196.5" y="-73.45" font-family="Times,serif" font-size="14.00">name</text>
<polyline fill="none" stroke="black" points="162.62,-66.25 260.38,-66.25"/>
<text text-anchor="start" x="209.62" y="-48.95" font-family="Times,serif" font-size="14.00"> </text>
</g>
<!-- api.models.domain.ConditionType&#45;&gt;api.models.domain.Condition -->
<g id="edge1" class="edge">
<title>api.models.domain.ConditionType&#45;&gt;api.models.domain.Condition</title>
<path fill="none" stroke="black" d="M221.04,-115.61C228.69,-144.58 239.69,-186.2 249.17,-222.08"/>
<polygon fill="black" stroke="black" points="249.15,-222.03 254.55,-226.8 252.22,-233.63 246.82,-228.85 249.15,-222.03"/>
<text text-anchor="middle" x="251.62" y="-178.2" font-family="Times,serif" font-size="14.00" fill="green">type</text>
</g>
<!-- api.models.domain.IntensityLevel -->
<g id="node4" class="node">
<title>api.models.domain.IntensityLevel</title>
<polygon fill="none" stroke="black" points="278.5,-41.75 278.5,-115.25 372.5,-115.25 372.5,-41.75 278.5,-41.75"/>
<text text-anchor="start" x="286.5" y="-97.95" font-family="Times,serif" font-size="14.00">IntensityLevel</text>
<polyline fill="none" stroke="black" points="278.5,-90.75 372.5,-90.75"/>
<text text-anchor="start" x="310.5" y="-73.45" font-family="Times,serif" font-size="14.00">name</text>
<polyline fill="none" stroke="black" points="278.5,-66.25 372.5,-66.25"/>
<text text-anchor="start" x="323.62" y="-48.95" font-family="Times,serif" font-size="14.00"> </text>
</g>
<!-- api.models.domain.IntensityLevel&#45;&gt;api.models.domain.Condition -->
<g id="edge2" class="edge">
<title>api.models.domain.IntensityLevel&#45;&gt;api.models.domain.Condition</title>
<path fill="none" stroke="black" d="M315.96,-115.61C308.31,-144.58 297.31,-186.2 287.83,-222.08"/>
<polygon fill="black" stroke="black" points="287.85,-222.03 290.18,-228.85 284.78,-233.63 282.45,-226.8 287.85,-222.03"/>
<text text-anchor="middle" x="321.96" y="-178.2" font-family="Times,serif" font-size="14.00" fill="green">intensity</text>
</g>
<!-- api.models.domain.Location -->
<g id="node5" class="node">
<title>api.models.domain.Location</title>
<polygon fill="none" stroke="black" points="391,-0.5 391,-156.5 536,-156.5 536,-0.5 391,-0.5"/>
<text text-anchor="start" x="439.5" y="-139.2" font-family="Times,serif" font-size="14.00">Location</text>
<polyline fill="none" stroke="black" points="391,-132 536,-132"/>
<text text-anchor="start" x="420" y="-114.7" font-family="Times,serif" font-size="14.00">elevation : float</text>
<text text-anchor="start" x="420" y="-98.2" font-family="Times,serif" font-size="14.00">id : UUID</text>
<text text-anchor="start" x="420" y="-81.7" font-family="Times,serif" font-size="14.00">latitude : float</text>
<text text-anchor="start" x="420" y="-65.2" font-family="Times,serif" font-size="14.00">longitude : float</text>
<text text-anchor="start" x="420" y="-48.7" font-family="Times,serif" font-size="14.00">name : str</text>
<text text-anchor="start" x="420" y="-32.2" font-family="Times,serif" font-size="14.00">timezone : str</text>
<polyline fill="none" stroke="black" points="391,-25 536,-25"/>
<text text-anchor="start" x="399" y="-7.7" font-family="Times,serif" font-size="14.00">to_dict(): Dict[str, Any]</text>
</g>
<!-- api.models.domain.Report -->
<g id="node6" class="node">
<title>api.models.domain.Report</title>
<polygon fill="none" stroke="black" points="527.38,-210 527.38,-382.5 689.62,-382.5 689.62,-210 527.38,-210"/>
<text text-anchor="start" x="590.12" y="-365.2" font-family="Times,serif" font-size="14.00">Report</text>
<polyline fill="none" stroke="black" points="527.38,-358 689.62,-358"/>
<text text-anchor="start" x="535.38" y="-340.7" font-family="Times,serif" font-size="14.00">humidity : float</text>
<text text-anchor="start" x="535.38" y="-324.2" font-family="Times,serif" font-size="14.00">id : UUID</text>
<text text-anchor="start" x="535.38" y="-307.7" font-family="Times,serif" font-size="14.00">location_id : UUID</text>
<text text-anchor="start" x="535.38" y="-291.2" font-family="Times,serif" font-size="14.00">source : str</text>
<text text-anchor="start" x="535.38" y="-274.7" font-family="Times,serif" font-size="14.00">temperature_current : float</text>
<text text-anchor="start" x="535.38" y="-258.2" font-family="Times,serif" font-size="14.00">temperature_unit</text>
<text text-anchor="start" x="535.38" y="-241.7" font-family="Times,serif" font-size="14.00">timestamp : datetime</text>
<polyline fill="none" stroke="black" points="527.38,-234.5 689.62,-234.5"/>
<text text-anchor="start" x="544" y="-217.2" font-family="Times,serif" font-size="14.00">to_dict(): Dict[str, Any]</text>
</g>
<!-- api.models.domain.ReportCondition -->
<g id="node7" class="node">
<title>api.models.domain.ReportCondition</title>
<polygon fill="none" stroke="black" points="681,-25.25 681,-131.75 826,-131.75 826,-25.25 681,-25.25"/>
<text text-anchor="start" x="708.12" y="-114.45" font-family="Times,serif" font-size="14.00">ReportCondition</text>
<polyline fill="none" stroke="black" points="681,-107.25 826,-107.25"/>
<text text-anchor="start" x="696.88" y="-89.95" font-family="Times,serif" font-size="14.00">condition_id : UUID</text>
<text text-anchor="start" x="696.88" y="-73.45" font-family="Times,serif" font-size="14.00">id : UUID</text>
<text text-anchor="start" x="696.88" y="-56.95" font-family="Times,serif" font-size="14.00">report_id : UUID</text>
<polyline fill="none" stroke="black" points="681,-49.75 826,-49.75"/>
<text text-anchor="start" x="689" y="-32.45" font-family="Times,serif" font-size="14.00">to_dict(): Dict[str, Any]</text>
</g>
<!-- api.models.domain.TemperatureUnit -->
<g id="node8" class="node">
<title>api.models.domain.TemperatureUnit</title>
<polygon fill="none" stroke="black" points="553.62,-41.75 553.62,-115.25 663.38,-115.25 663.38,-41.75 553.62,-41.75"/>
<text text-anchor="start" x="561.62" y="-97.95" font-family="Times,serif" font-size="14.00">TemperatureUnit</text>
<polyline fill="none" stroke="black" points="553.62,-90.75 663.38,-90.75"/>
<text text-anchor="start" x="593.5" y="-73.45" font-family="Times,serif" font-size="14.00">name</text>
<polyline fill="none" stroke="black" points="553.62,-66.25 663.38,-66.25"/>
<text text-anchor="start" x="606.62" y="-48.95" font-family="Times,serif" font-size="14.00"> </text>
</g>
<!-- api.models.domain.TemperatureUnit&#45;&gt;api.models.domain.Report -->
<g id="edge3" class="edge">
<title>api.models.domain.TemperatureUnit&#45;&gt;api.models.domain.Report</title>
<path fill="none" stroke="black" d="M608.5,-115.61C608.5,-137.97 608.5,-167.87 608.5,-196.84"/>
<polygon fill="black" stroke="black" points="608.5,-196.71 612.5,-202.71 608.5,-208.71 604.5,-202.71 608.5,-196.71"/>
<text text-anchor="middle" x="655" y="-178.2" font-family="Times,serif" font-size="14.00" fill="green">temperature_unit</text>
</g>
</g>
</svg>
