<?xml version="1.0" encoding="UTF-8" standalone="no"?>
<!DOCTYPE svg PUBLIC "-//W3C//DTD SVG 1.1//EN"
 "http://www.w3.org/Graphics/SVG/1.1/DTD/svg11.dtd">
<!-- Generated by graphviz version 12.2.1 (20241206.2353)
 -->
<!-- Title: Controllers Pages: 1 -->
<svg width="164pt" height="164pt"
 viewBox="0.00 0.00 164.33 163.90" xmlns="http://www.w3.org/2000/svg" xmlns:xlink="http://www.w3.org/1999/xlink">
<g id="graph0" class="graph" transform="scale(1 1) rotate(0) translate(4 159.9)">
<title>Controllers</title>
<polygon fill="#ffffff" stroke="none" points="-4,4 -4,-159.9 160.33,-159.9 160.33,4 -4,4"/>
<!-- WeatherController -->
<g id="node1" class="node">
<title>WeatherController</title>
<polygon fill="none" stroke="black" points="0,-73.5 0,-155.4 156.33,-155.4 156.33,-73.5 0,-73.5"/>
<text text-anchor="middle" x="78.17" y="-142.3" font-family="Helvetica,sans-Serif" font-size="10.00">WeatherController</text>
<polyline fill="none" stroke="black" points="0,-136.95 156.33,-136.95"/>
<text text-anchor="start" x="5.04" y="-123.85" font-family="Helvetica,sans-Serif" font-size="10.00">+ add_weather_report(body)</text>
<text text-anchor="start" x="5.04" y="-112.6" font-family="Helvetica,sans-Serif" font-size="10.00">+ get_all_city_summaries()</text>
<text text-anchor="start" x="5.04" y="-101.35" font-family="Helvetica,sans-Serif" font-size="10.00">+ get_city_weather(city)</text>
<text text-anchor="start" x="5.04" y="-90.1" font-family="Helvetica,sans-Serif" font-size="10.00">+ update_city_weather(city, body)</text>
<text text-anchor="start" x="5.04" y="-78.85" font-family="Helvetica,sans-Serif" font-size="10.00">+ delete_city_weather(city)</text>
</g>
<!-- WeatherService -->
<g id="node2" class="node">
<title>WeatherService</title>
<polygon fill="none" stroke="black" points="38.63,-0.5 38.63,-36.5 117.71,-36.5 117.71,-0.5 38.63,-0.5"/>
<text text-anchor="middle" x="78.17" y="-14.62" font-family="Helvetica,sans-Serif" font-size="10.00">WeatherService</text>
</g>
<!-- WeatherController&#45;&gt;WeatherService -->
<g id="edge1" class="edge">
<title>WeatherController&#45;&gt;WeatherService</title>
<path fill="none" stroke="black" stroke-dasharray="5,2" d="M78.17,-73.06C78.17,-64.51 78.17,-55.66 78.17,-47.67"/>
<polygon fill="black" stroke="black" points="78.17,-37.95 82.67,-47.95 78.17,-41.73 78.17,-47.95 78.17,-47.95 78.17,-47.95 78.17,-41.73 73.67,-47.95 78.17,-37.95"/>
</g>
</g>
</svg>
