<?xml version="1.0" encoding="UTF-8" standalone="no"?>
<!DOCTYPE svg PUBLIC "-//W3C//DTD SVG 1.1//EN"
 "http://www.w3.org/Graphics/SVG/1.1/DTD/svg11.dtd">
<!-- Generated by graphviz version 12.2.1 (20241206.2353)
 -->
<!-- Title: packages_Repositories Pages: 1 -->
<svg width="294pt" height="116pt"
 viewBox="0.00 0.00 294.12 116.00" xmlns="http://www.w3.org/2000/svg" xmlns:xlink="http://www.w3.org/1999/xlink">
<g id="graph0" class="graph" transform="scale(1 1) rotate(0) translate(4 112)">
<title>packages_Repositories</title>
<polygon fill="white" stroke="none" points="-4,4 -4,-112 290.12,-112 290.12,4 -4,4"/>
<!-- api.repositories -->
<g id="node1" class="node">
<title>api.repositories</title>
<polygon fill="none" stroke="black" points="99.25,-36 0,-36 0,0 99.25,0 99.25,-36"/>
<text text-anchor="middle" x="49.62" y="-12.95" font-family="Times,serif" font-size="14.00">api.repositories</text>
</g>
<!-- api.repositories.memory_repository -->
<g id="node2" class="node">
<title>api.repositories.memory_repository</title>
<polygon fill="none" stroke="black" points="286.12,-108 75.12,-108 75.12,-72 286.12,-72 286.12,-108"/>
<text text-anchor="middle" x="180.62" y="-84.95" font-family="Times,serif" font-size="14.00">api.repositories.memory_repository</text>
</g>
<!-- api.repositories.seed -->
<g id="node3" class="node">
<title>api.repositories.seed</title>
<polygon fill="none" stroke="black" points="244.12,-36 117.12,-36 117.12,0 244.12,0 244.12,-36"/>
<text text-anchor="middle" x="180.62" y="-12.95" font-family="Times,serif" font-size="14.00">api.repositories.seed</text>
</g>
<!-- api.repositories.seed&#45;&gt;api.repositories.memory_repository -->
<g id="edge1" class="edge">
<title>api.repositories.seed&#45;&gt;api.repositories.memory_repository</title>
<path fill="none" stroke="black" d="M180.62,-36.3C180.62,-43.68 180.62,-52.48 180.62,-60.75"/>
<polygon fill="black" stroke="black" points="180.63,-70.68 176.13,-60.68 180.63,-66.9 180.63,-60.68 180.63,-60.68 180.63,-60.68 180.63,-66.9 185.13,-60.68 180.63,-70.68"/>
</g>
</g>
</svg>
