<?xml version="1.0" encoding="UTF-8" standalone="no"?>
<!DOCTYPE svg PUBLIC "-//W3C//DTD SVG 1.1//EN"
 "http://www.w3.org/Graphics/SVG/1.1/DTD/svg11.dtd">
<!-- Generated by graphviz version 12.2.1 (20241206.2353)
 -->
<!-- Title: packages_WeatherAPI Pages: 1 -->
<svg width="1078pt" height="260pt"
 viewBox="0.00 0.00 1077.88 260.00" xmlns="http://www.w3.org/2000/svg" xmlns:xlink="http://www.w3.org/1999/xlink">
<g id="graph0" class="graph" transform="scale(1 1) rotate(0) translate(4 256)">
<title>packages_WeatherAPI</title>
<polygon fill="white" stroke="none" points="-4,4 -4,-256 1073.88,-256 1073.88,4 -4,4"/>
<!-- api -->
<g id="node1" class="node">
<title>api</title>
<polygon fill="none" stroke="black" points="54,-36 0,-36 0,0 54,0 54,-36"/>
<text text-anchor="middle" x="27" y="-12.95" font-family="Times,serif" font-size="14.00">api</text>
</g>
<!-- api.controllers -->
<g id="node2" class="node">
<title>api.controllers</title>
<polygon fill="none" stroke="black" points="166,-36 72,-36 72,0 166,0 166,-36"/>
<text text-anchor="middle" x="119" y="-12.95" font-family="Times,serif" font-size="14.00">api.controllers</text>
</g>
<!-- api.controllers.weather_controller -->
<g id="node3" class="node">
<title>api.controllers.weather_controller</title>
<polygon fill="none" stroke="black" points="383.88,-36 184.12,-36 184.12,0 383.88,0 383.88,-36"/>
<text text-anchor="middle" x="284" y="-12.95" font-family="Times,serif" font-size="14.00">api.controllers.weather_controller</text>
</g>
<!-- api.services.weather_service -->
<g id="node15" class="node">
<title>api.services.weather_service</title>
<polygon fill="none" stroke="black" points="369.62,-108 198.38,-108 198.38,-72 369.62,-72 369.62,-108"/>
<text text-anchor="middle" x="284" y="-84.95" font-family="Times,serif" font-size="14.00">api.services.weather_service</text>
</g>
<!-- api.controllers.weather_controller&#45;&gt;api.services.weather_service -->
<g id="edge1" class="edge">
<title>api.controllers.weather_controller&#45;&gt;api.services.weather_service</title>
<path fill="none" stroke="black" d="M284,-36.3C284,-43.68 284,-52.48 284,-60.75"/>
<polygon fill="black" stroke="black" points="284,-70.68 279.5,-60.68 284,-66.9 284,-60.68 284,-60.68 284,-60.68 284,-66.9 288.5,-60.68 284,-70.68"/>
</g>
<!-- api.docs -->
<g id="node4" class="node">
<title>api.docs</title>
<polygon fill="none" stroke="black" points="517.5,-36 456.5,-36 456.5,0 517.5,0 517.5,-36"/>
<text text-anchor="middle" x="487" y="-12.95" font-family="Times,serif" font-size="14.00">api.docs</text>
</g>
<!-- api.docs.templates -->
<g id="node5" class="node">
<title>api.docs.templates</title>
<polygon fill="none" stroke="black" points="683.62,-180 566.38,-180 566.38,-144 683.62,-144 683.62,-180"/>
<text text-anchor="middle" x="625" y="-156.95" font-family="Times,serif" font-size="14.00">api.docs.templates</text>
</g>
<!-- api.models -->
<g id="node6" class="node">
<title>api.models</title>
<polygon fill="none" stroke="black" points="754,-36 678,-36 678,0 754,0 754,-36"/>
<text text-anchor="middle" x="716" y="-12.95" font-family="Times,serif" font-size="14.00">api.models</text>
</g>
<!-- api.models.domain -->
<g id="node7" class="node">
<title>api.models.domain</title>
<polygon fill="none" stroke="black" points="435.5,-252 314.5,-252 314.5,-216 435.5,-216 435.5,-252"/>
<text text-anchor="middle" x="375" y="-228.95" font-family="Times,serif" font-size="14.00">api.models.domain</text>
</g>
<!-- api.repositories -->
<g id="node8" class="node">
<title>api.repositories</title>
<polygon fill="none" stroke="black" points="871.62,-36 772.38,-36 772.38,0 871.62,0 871.62,-36"/>
<text text-anchor="middle" x="822" y="-12.95" font-family="Times,serif" font-size="14.00">api.repositories</text>
</g>
<!-- api.repositories.memory_repository -->
<g id="node9" class="node">
<title>api.repositories.memory_repository</title>
<polygon fill="none" stroke="black" points="480.5,-180 269.5,-180 269.5,-144 480.5,-144 480.5,-180"/>
<text text-anchor="middle" x="375" y="-156.95" font-family="Times,serif" font-size="14.00">api.repositories.memory_repository</text>
</g>
<!-- api.repositories.memory_repository&#45;&gt;api.models.domain -->
<g id="edge2" class="edge">
<title>api.repositories.memory_repository&#45;&gt;api.models.domain</title>
<path fill="none" stroke="black" d="M375,-180.3C375,-187.68 375,-196.48 375,-204.75"/>
<polygon fill="black" stroke="black" points="375,-214.68 370.5,-204.68 375,-210.9 375,-204.68 375,-204.68 375,-204.68 375,-210.9 379.5,-204.68 375,-214.68"/>
</g>
<!-- api.repositories.seed -->
<g id="node10" class="node">
<title>api.repositories.seed</title>
<polygon fill="none" stroke="black" points="542.5,-108 415.5,-108 415.5,-72 542.5,-72 542.5,-108"/>
<text text-anchor="middle" x="479" y="-84.95" font-family="Times,serif" font-size="14.00">api.repositories.seed</text>
</g>
<!-- api.repositories.seed&#45;&gt;api.models.domain -->
<g id="edge3" class="edge">
<title>api.repositories.seed&#45;&gt;api.models.domain</title>
<path fill="none" stroke="black" d="M487.29,-108.2C495.17,-127.27 503.93,-158.23 490,-180 479.74,-196.02 463.29,-207.26 445.99,-215.13"/>
<polygon fill="black" stroke="black" points="436.87,-218.92 444.38,-210.93 440.36,-217.47 446.11,-215.08 446.11,-215.08 446.11,-215.08 440.36,-217.47 447.83,-219.24 436.87,-218.92"/>
</g>
<!-- api.repositories.seed&#45;&gt;api.repositories.memory_repository -->
<g id="edge4" class="edge">
<title>api.repositories.seed&#45;&gt;api.repositories.memory_repository</title>
<path fill="none" stroke="black" d="M453.02,-108.48C439.9,-117.32 423.79,-128.16 409.62,-137.7"/>
<polygon fill="black" stroke="black" points="401.66,-143.06 407.44,-133.74 404.79,-140.95 409.95,-137.48 409.95,-137.48 409.95,-137.48 404.79,-140.95 412.46,-141.21 401.66,-143.06"/>
</g>
<!-- api.routes -->
<g id="node11" class="node">
<title>api.routes</title>
<polygon fill="none" stroke="black" points="659.62,-36 590.38,-36 590.38,0 659.62,0 659.62,-36"/>
<text text-anchor="middle" x="625" y="-12.95" font-family="Times,serif" font-size="14.00">api.routes</text>
</g>
<!-- api.routes.main -->
<g id="node12" class="node">
<title>api.routes.main</title>
<polygon fill="none" stroke="black" points="675.38,-108 574.62,-108 574.62,-72 675.38,-72 675.38,-108"/>
<text text-anchor="middle" x="625" y="-84.95" font-family="Times,serif" font-size="14.00">api.routes.main</text>
</g>
<!-- api.routes&#45;&gt;api.routes.main -->
<g id="edge5" class="edge">
<title>api.routes&#45;&gt;api.routes.main</title>
<path fill="none" stroke="black" d="M625,-36.3C625,-43.68 625,-52.48 625,-60.75"/>
<polygon fill="black" stroke="black" points="625,-70.68 620.5,-60.68 625,-66.9 625,-60.68 625,-60.68 625,-60.68 625,-66.9 629.5,-60.68 625,-70.68"/>
</g>
<!-- api.routes.main&#45;&gt;api.docs.templates -->
<g id="edge6" class="edge">
<title>api.routes.main&#45;&gt;api.docs.templates</title>
<path fill="none" stroke="black" d="M625,-108.3C625,-115.68 625,-124.48 625,-132.75"/>
<polygon fill="black" stroke="black" points="625,-142.68 620.5,-132.68 625,-138.9 625,-132.68 625,-132.68 625,-132.68 625,-138.9 629.5,-132.68 625,-142.68"/>
</g>
<!-- api.schemas -->
<g id="node13" class="node">
<title>api.schemas</title>
<polygon fill="none" stroke="black" points="972.38,-36 889.62,-36 889.62,0 972.38,0 972.38,-36"/>
<text text-anchor="middle" x="931" y="-12.95" font-family="Times,serif" font-size="14.00">api.schemas</text>
</g>
<!-- api.services -->
<g id="node14" class="node">
<title>api.services</title>
<polygon fill="none" stroke="black" points="1069.88,-36 990.12,-36 990.12,0 1069.88,0 1069.88,-36"/>
<text text-anchor="middle" x="1030" y="-12.95" font-family="Times,serif" font-size="14.00">api.services</text>
</g>
<!-- api.services.weather_service&#45;&gt;api.models.domain -->
<g id="edge7" class="edge">
<title>api.services.weather_service&#45;&gt;api.models.domain</title>
<path fill="none" stroke="black" d="M271.66,-108.31C259.85,-127.22 245.76,-157.76 260,-180 270.26,-196.02 286.71,-207.26 304.01,-215.13"/>
<polygon fill="black" stroke="black" points="313.13,-218.92 302.17,-219.24 309.64,-217.47 303.89,-215.08 303.89,-215.08 303.89,-215.08 309.64,-217.47 305.62,-210.93 313.13,-218.92"/>
</g>
<!-- api.services.weather_service&#45;&gt;api.repositories.memory_repository -->
<g id="edge8" class="edge">
<title>api.services.weather_service&#45;&gt;api.repositories.memory_repository</title>
<path fill="none" stroke="black" d="M306.49,-108.3C317.76,-116.97 331.58,-127.6 343.85,-137.04"/>
<polygon fill="black" stroke="black" points="351.48,-142.91 340.81,-140.38 348.49,-140.6 343.56,-136.81 343.56,-136.81 343.56,-136.81 348.49,-140.6 346.3,-133.25 351.48,-142.91"/>
</g>
</g>
</svg>
